<svg width="280" height="560" viewBox="0 0 280 560" fill="none" xmlns="http://www.w3.org/2000/svg">
<path d="M115 520H165V40H115V520Z" stroke="currentColor" stroke-width="18.6666" stroke-linecap="round" stroke-linejoin="round"/>
<path d="M213.924 520H65.0764C46.8095 520 32 505.175 32 486.894V73.1056C32 54.8244 46.8095 40 65.0764 40H213.924C232.191 40 247 54.8244 247 73.1056V486.894C247 505.175 232.191 520 213.924 520Z" stroke="currentColor" stroke-width="18.6666" stroke-linecap="round" stroke-linejoin="round"/>
<path d="M115 131C115 108.336 77.8754 90 32 90" stroke="currentColor" stroke-width="18.6666" stroke-linecap="round" stroke-linejoin="round"/>
<path d="M115 189C115 166.334 77.8754 148 32 148" stroke="currentColor" stroke-width="18.6666" stroke-linecap="round" stroke-linejoin="round"/>
<path d="M115 247C115 224.336 77.8754 206 32 206" stroke="currentColor" stroke-width="18.6666" stroke-linecap="round" stroke-linejoin="round"/>
<path d="M115 305C115 282.336 77.8754 264 32 264" stroke="currentColor" stroke-width="18.6666" stroke-linecap="round" stroke-linejoin="round"/>
<path d="M115 363C115 340.334 77.8754 322 32 322" stroke="currentColor" stroke-width="18.6666" stroke-linecap="round" stroke-linejoin="round"/>
<path d="M115 421C115 398.336 77.8754 380 32 380" stroke="currentColor" stroke-width="18.6666" stroke-linecap="round" stroke-linejoin="round"/>
<path d="M115 479C115 456.336 77.8754 438 32 438" stroke="currentColor" stroke-width="18.6666" stroke-linecap="round" stroke-linejoin="round"/>
<path d="M165 131C165 108.336 201.677 90 247 90" stroke="currentColor" stroke-width="18.6666" stroke-linecap="round" stroke-linejoin="round"/>
<path d="M165 189C165 166.334 201.677 148 247 148" stroke="currentColor" stroke-width="18.6666" stroke-linecap="round" stroke-linejoin="round"/>
<path d="M165 247C165 224.336 201.677 206 247 206" stroke="currentColor" stroke-width="18.6666" stroke-linecap="round" stroke-linejoin="round"/>
<path d="M165 305C165 282.336 201.677 264 247 264" stroke="currentColor" stroke-width="18.6666" stroke-linecap="round" stroke-linejoin="round"/>
<path d="M165 363C165 340.334 201.677 322 247 322" stroke="currentColor" stroke-width="18.6666" stroke-linecap="round" stroke-linejoin="round"/>
<path d="M165 421C165 398.336 201.677 380 247 380" stroke="currentColor" stroke-width="18.6666" stroke-linecap="round" stroke-linejoin="round"/>
<path d="M165 479C165 456.336 201.677 438 247 438" stroke="currentColor" stroke-width="18.6666" stroke-linecap="round" stroke-linejoin="round"/>
</svg>
